<?xml version="1.0" encoding="UTF-8"?>
<svg id="Layer_2" data-name="Layer 2" xmlns="http://www.w3.org/2000/svg" viewBox="0 0 1607.91 382.63">
  <g id="Layer_1-2" data-name="Layer 1">
    <g>
      <g>
        <path d="M273.65,15.06s-.02,0-.05-.02c.02,0,.03.01.05.02Z"/>
        <path d="M273.6,15.04c-.09-.04-.16-.08-.21-.1.07.03.16.07.21.1Z"/>
        <path d="M273.39,14.94c-.11-.05-.17-.08,0,0h0Z"/>
        <path d="M131.32,104.53c.08-.33.16-.69.26-1.06-.1.37-.18.72-.26,1.06,0,0,0,0,0,0Z"/>
        <path d="M249.7,170.05c-16.77-3.89-44.49-8.65-49.35,5.8l-.03.14c-1.46,10.41,10.66,17.3,17.6,23.39,10.11,8.08,18.55,16.57,26.3,26.78,1.12,1.34,2.2,2.84,3.3,4.38,3.05-.55,6.06-1.23,9.02-2.06,16.06-4.64,31.05-15.56,45.66-33.24-8.08-6.1-18.64-12.54-26.29-15.96-8.44-3.78-17.02-7.1-26.2-9.23Z"/>
        <path d="M130.63,350.21h0c-.72-.39-1.43-.78-2.14-1.18l-.11-.06c-4.91-2.74-9.77-5.72-14.42-8.86l-.02-.02-.02-.02c-.87-.59-1.74-1.19-2.61-1.79l-.08-.06-.27-.19c-.84-.59-1.67-1.18-2.49-1.77l-.22-.16-.12-.09c-4.37-3.18-8.68-6.58-12.8-10.12l-.17-.15-.32-.28c-.7-.6-1.39-1.21-2.08-1.82l-.64-.57c-.67-.6-1.34-1.2-2-1.81l-.42-.39-.19-.18c-.68-.63-1.36-1.26-2.03-1.9l-.2-.19-.07-.07c-2.2-2.1-4.39-4.29-6.52-6.52l-.2-.21-.38-.4c-.57-.6-1.14-1.21-1.7-1.81l-.08-.09c-.24-.26-.49-.53-.73-.79-.53-.58-1.06-1.17-1.59-1.75-.29-.32-.58-.65-.87-.98-.51-.58-1.03-1.16-1.53-1.75-.22-.25-.43-.5-.65-.76l-.2-.24-.07-.08c-.49-.57-.97-1.14-1.45-1.72-.15-.18-.29-.35-.44-.53l-.23-.28c-1.04-1.27-2.08-2.56-3.09-3.84l-.22-.28c-.14-.17-.28-.35-.41-.52-.37-.47-.73-.95-1.09-1.43l-.22-.28-.19-.25c-.25-.33-.5-.66-.75-.99-.41-.55-.82-1.1-1.22-1.65-.33-.45-.65-.9-.98-1.34-.39-.54-.78-1.09-1.17-1.63-.33-.47-.66-.94-.99-1.42-.37-.54-.74-1.07-1.11-1.61-.3-.44-.59-.88-.89-1.32l-.13-.2-.25-.37c-.26-.39-.53-.79-.79-1.19-.41-.63-.82-1.27-1.22-1.91l-.07-.12c-.47-.73-.93-1.47-1.39-2.21l-.11-.18c-.35-.57-.7-1.13-1.04-1.7-.23-.38-.45-.75-.67-1.13l-.2-.34c-.34-.58-.69-1.17-1.03-1.75-.29-.5-.58-1.01-.86-1.51-.33-.59-.66-1.17-.99-1.76-.28-.5-.56-1.01-.83-1.51-.33-.61-.66-1.23-.99-1.85l-.15-.28c-.21-.39-.41-.78-.61-1.17-.37-.71-.72-1.42-1.08-2.13l-.2-.39c-.14-.27-.27-.54-.41-.8-.54-1.09-1.07-2.19-1.59-3.28-.11-.23-.22-.47-.33-.7l-.17-.37c-.36-.78-.72-1.56-1.08-2.34-.15-.34-.3-.68-.45-1.01l-.15-.34c-.31-.7-.61-1.4-.91-2.1-.2-.48-.4-.95-.6-1.43-.29-.69-.58-1.39-.86-2.09-.19-.47-.38-.94-.57-1.41-.29-.74-.58-1.48-.86-2.22l-.14-.37c-.12-.31-.24-.62-.35-.92-.35-.93-.68-1.86-1.02-2.8l-.09-.24c-.06-.17-.12-.33-.18-.5-.4-1.14-.8-2.33-1.2-3.54-.08-.24-.15-.47-.23-.71l-.12-.36c-.27-.84-.54-1.69-.8-2.53-.11-.35-.21-.7-.32-1.05l-.09-.3c-.23-.76-.46-1.53-.68-2.3-.14-.47-.27-.95-.4-1.42-.21-.76-.42-1.53-.62-2.3l-.05-.19c-.11-.4-.21-.8-.31-1.2-.21-.83-.42-1.66-.62-2.5l-.09-.38c-.07-.27-.13-.54-.2-.81-.31-1.32-.58-2.53-.84-3.7-.26-1.23-.53-2.53-.78-3.84l-.02-.1c-1.43-7.44-2.39-14.77-2.91-22.37-5.46-11.48-7.79-24.77-7.92-37.29-.11-6.29.43-13.36,1.05-19.59.18-4.42,2.68-18.82-1.76-19.79-2.01.1-3.21,2.1-5.03,4.63-1.96,3.08-3.91,6.62-4.99,10.15-18.53,60.66-.58,138.67,59.44,188.16,16.78,13.84,40.2,26.72,64.18,34.09.01,0,.03-.02.04-.02Z"/>
        <path d="M257.26,23.88c-10.55,0-21.04,1.44-31.18,4.29-13.59,3.82-25.92,8.97-36.76,15.35h0c-1.28.76-2.6,1.57-3.93,2.41h0s-.24.15-.24.15l-.04.02c-.73.47-1.41.91-2.05,1.34h-.01s-.02.02-.02.02c-.62.41-1.2.81-1.75,1.2h0s0,0,0,0h0s0,0,0,0l-.06.04c-4.47,3.14-8.62,6.53-12.33,10.08-3.57,3.42-6.67,6.81-9.45,10.37,5.55-3.23,11.81-5.55,18.77-6.62,22.82-3.51,44.52,6.55,56.46,25.69,7.86,12.6,10.22,27.31,28.69,29.17,16.64,1.68,37.54-3.76,51.85-16.56,10.33-9.24,23.23-26.19,20.79-39.83-1.94-9.87-17.08-19.77-25.84-25.79-4.1-2.82-8.19-5.4-12.32-7.81-24.81-3.66-34.37-3.39-36.92-3.48-1.22-.04-2.45-.06-3.66-.06Z"/>
        <path d="M348.58,195.12c-1.88-3.38-4.4-6.72-7.49-8.97l-.14-.1c-10.28-7.57-20.01,1.72-26.52,9.9-14.29,18.68-32.05,35.48-55.15,42.15-32.93,9.29-70.48,2.22-98.19-19.65-28.05-23.93-41.74-60.51-34.89-95.99,1.35-6.96,3.18-13.58,5.57-19.73-.07.25-.14.51-.2.75.06-.24.13-.5.2-.75,0,0,0,0,0,0,.09-.34.19-.69.3-1.05,0-.02.01-.04.02-.06.1-.35.21-.72.33-1.09,0-.03.02-.06.03-.09,1.72-5.54,4.67-13.09,7.86-19.47,1.14-2.27,2.31-4.44,3.51-6.5.8-1.38,1.62-2.71,2.46-4.01,4.6-7.14,9.74-13.15,15.69-18.86,4.19-4.02,8.72-7.7,13.51-11.05,1.39-.98,2.81-1.92,4.24-2.84.1-.06.2-.13.3-.19,0,0,0,0,0,0,13.29-8.49,28.26-14.71,43.34-18.95,11.01-3.09,22.45-4.67,33.89-4.67,1.33,0,2.66.02,3.98.06,4.13.13,8.28.52,12.4,1.12C245.21,1.73,215.71-2.61,184.23,1.48c-39.44,4.54-74.98,24.18-101.44,52.4-14.85,15.06-26.4,31.55-35.53,54.45-7.06,17.7-9.97,34.28-11.09,45.23,0,.03,0,.06,0,.08,0,.02,0,.04,0,.06-.35,3.46-.52,6.36-.58,8.53-.87,15.48-.56,30.81,2.78,48.12,0,.03,0,.05.01.08.23,1.21.48,2.42.74,3.65.25,1.17.52,2.34.79,3.51.09.38.18.75.27,1.13.19.79.39,1.58.59,2.37.11.44.23.88.35,1.32.19.73.39,1.45.59,2.18.13.45.25.9.38,1.35.21.73.42,1.45.64,2.18.13.43.25.85.39,1.28.25.8.5,1.6.76,2.4.11.34.22.68.33,1.02.37,1.12.75,2.24,1.14,3.36.08.23.17.47.25.7.32.89.64,1.77.96,2.65.15.41.31.82.47,1.22.27.71.54,1.41.82,2.11.18.45.36.9.54,1.34.27.66.54,1.32.81,1.98.19.45.38.91.57,1.36.28.67.57,1.33.87,1.99.19.43.38.86.57,1.29.33.74.68,1.48,1.02,2.22.16.34.31.68.47,1.01.49,1.04.99,2.08,1.51,3.11.19.38.38.76.58,1.14.34.67.68,1.35,1.03,2.02.24.46.48.91.72,1.37.31.59.62,1.17.94,1.76.26.48.52.96.79,1.44.31.56.62,1.12.94,1.67.27.48.54.96.82,1.44.32.56.65,1.11.98,1.67.28.47.55.94.83,1.4.36.6.73,1.19,1.09,1.78.44.7.87,1.41,1.32,2.1.41.64.82,1.29,1.23,1.93.32.5.65.99.98,1.48.32.48.64.97.97,1.45.35.51.7,1.02,1.06,1.53.31.45.62.9.94,1.35.37.52.74,1.04,1.11,1.56.31.43.62.85.93,1.28.39.53.77,1.05,1.16,1.57.3.4.6.79.9,1.18.41.54.83,1.09,1.25,1.63.2.26.4.51.6.76.96,1.23,1.94,2.45,2.94,3.65.21.26.42.51.63.77.48.57.96,1.14,1.45,1.71.27.32.54.63.81.94.48.56.97,1.11,1.46,1.67.27.31.55.62.82.93.5.56,1,1.12,1.51,1.67.26.28.52.56.77.84.54.58,1.07,1.16,1.62,1.73.18.19.37.38.56.58,2.02,2.11,4.09,4.18,6.21,6.2.08.08.17.16.25.24.64.61,1.29,1.21,1.93,1.81.19.18.39.36.58.54.63.58,1.27,1.15,1.9,1.72.2.18.41.36.61.54.65.58,1.31,1.16,1.97,1.73.16.14.31.27.47.4,3.93,3.37,7.99,6.58,12.17,9.62.11.08.21.16.32.23.79.57,1.58,1.13,2.37,1.69.11.08.22.15.33.23.82.57,1.65,1.14,2.48,1.7,0,0,.02.01.03.02,4.45,3,9.02,5.81,13.71,8.42.04.02.07.04.11.06.92.51,1.85,1.02,2.78,1.52.01,0,.03.02.04.02,2.35,1.26,4.74,2.45,7.15,3.6.74-.23,1.45-.45,2.11-.68l.61-.22c.35-.12.7-.25,1.05-.38.53-.2,1.07-.41,1.6-.62l.14-.05c18.95-7.63,39.98-24.33,48.8-33.07,3.24-3.19,7.77-8.42,11.72-13.22,1.74-2.11,4.84-2.42,6.97-.72,2.18,1.74,2.51,4.93.73,7.09-3.92,4.76-8.75,10.37-12.38,13.95-.35.35-.73.71-1.11,1.08-.12.12-.25.24-.38.36-.27.26-.54.51-.82.78-.15.14-.3.28-.46.42-.28.26-.56.51-.84.77-.16.14-.31.29-.48.43-.31.28-.63.57-.96.85-.14.13-.28.25-.43.38-.47.41-.95.83-1.44,1.26-.03.02-.06.05-.09.08-.47.4-.94.8-1.43,1.21-.17.14-.34.28-.51.42-.36.3-.72.6-1.08.9-.2.16-.4.33-.6.49-.35.29-.71.58-1.07.87-.12.1-.24.2-.37.3-.07.06-.15.12-.22.17-.63.51-1.27,1.01-1.93,1.52-.02.01-.03.02-.05.04-.64.5-1.29,1-1.94,1.5-.19.14-.38.29-.57.43-.55.41-1.1.83-1.66,1.24-.15.11-.3.23-.46.34-.69.51-1.4,1.02-2.11,1.53-.16.11-.32.23-.48.34-.57.41-1.15.82-1.74,1.23-.2.14-.41.29-.61.43-.73.51-1.47,1.02-2.22,1.52-.03.02-.05.04-.08.05-.72.49-1.45.97-2.18,1.45-.21.14-.43.28-.64.42-.61.4-1.23.79-1.84,1.18-.17.11-.34.21-.5.32-.76.48-1.53.96-2.3,1.43-.18.11-.35.21-.53.32-.62.37-1.24.74-1.86,1.11-.22.13-.44.26-.66.39-.78.45-1.57.9-2.36,1.34,0,0-.01,0-.02.01-.78.43-1.56.85-2.34,1.27-.22.12-.44.23-.66.35-.63.33-1.26.66-1.9.98-.18.09-.35.18-.53.27-.78.39-1.56.77-2.34,1.14-.17.08-.35.16-.52.24-.63.29-1.25.58-1.88.85-.22.1-.44.19-.66.29-.78.34-1.56.67-2.33.98-.04.02-.08.03-.12.04-.6.24-1.21.48-1.81.7-.45.17-.9.32-1.34.48-.19.07-.38.14-.57.21-2.36.81-5.01,1.53-7.57,2.38-.06.02-.12.04-.18.06-.42.14-.84.29-1.25.44-.12.04-.23.08-.35.13-.37.14-.73.28-1.08.42-.15.06-.29.12-.44.18-.33.14-.65.28-.97.43-.16.07-.32.15-.47.22-.3.15-.58.3-.87.46-.16.09-.33.17-.48.27-.27.16-.53.32-.78.49-.16.1-.32.2-.47.31-.24.17-.47.35-.7.54-.15.12-.3.23-.44.36-.21.19-.41.39-.61.59-.13.13-.27.26-.4.4-.19.21-.35.44-.52.66-.11.15-.23.29-.34.44-.16.24-.3.5-.44.76-.09.16-.18.31-.26.47-.14.29-.24.61-.35.92-.05.15-.12.29-.17.45-.14.48-.25.98-.32,1.51v.12c-1.08,14.4,37.77,15.91,56.25,15.28,39.59-1.35,61.81-10.25,76.96-17.06,9.29-4.18,28-13.9,45.59-29.14,0,0-.1-.01-.28-.04,12.77-10.62,23.18-23.91,32.58-41.69,16.57-31.32,23.42-71,8.25-99.48ZM315.32,278.38c-6.03,1.52-12.17-2.21-13.72-8.33-1.55-6.13,2.09-12.33,8.11-13.85,6.03-1.52,12.17,2.21,13.72,8.33,1.55,6.13-2.09,12.33-8.11,13.85Z"/>
      </g>
      <g>
        <g>
          <path d="M595.54,254.13h-85.31v34.24h49.49c-9.04,22.65-31.15,38.72-56.99,38.72-33.84,0-61.38-27.53-61.38-61.38s27.53-61.37,61.38-61.37c22.3,0,41.72,12.05,52.45,29.89h35.49c-12.96-36.13-47.41-62.1-87.95-62.1-51.61,0-93.59,41.98-93.59,93.59s41.98,93.59,93.59,93.59,93.59-41.99,93.59-93.59c0-3.92-.32-7.77-.79-11.56v-.02Z"/>
          <path d="M1002.01,179.25h-124.2s0,172.94,0,172.94h31.6v-70.62h92.6c28.53,0,51.74-22.95,51.74-51.16s-23.21-51.16-51.74-51.16ZM1002.01,249.97h-92.6l.11-39.13h92.49c11.11,0,20.15,8.78,20.15,19.57s-9.04,19.56-20.15,19.56Z"/>
          <path d="M794.23,261.06c0,32.73-26.63,59.35-59.35,59.35s-59.35-26.63-59.35-59.35v-81.71h-31.58v81.71c0,50.19,40.79,91.02,90.93,91.02s91.02-40.83,91.02-91.02v-81.71h-31.67v81.71Z"/>
          <polygon points="1497.9 179.35 1456.63 179.35 1399.84 242.59 1343.05 179.35 1301.78 179.35 1383.67 270.62 1383.67 352.08 1416.01 352.08 1416.01 270.62 1497.9 179.35"/>
          <path d="M1228.92,179.25h-124.2s0,172.94,0,172.94h31.6v-70.62h92.6c28.53,0,51.74-22.95,51.74-51.16s-23.21-51.16-51.74-51.16ZM1228.92,249.97h-92.6l.11-39.13h92.49c11.11,0,20.15,8.78,20.15,19.57s-9.04,19.56-20.15,19.56Z"/>
        </g>
        <path d="M916.12,40.91h39.5v67.57h15.6V40.91h39.5v-15.54h-94.59v15.54h-.02ZM871.31,89.61l-65.28-64.24h-17.92v83.12h15.54v-63.81l62.95,63.81h20.24V25.37h-15.54v64.24ZM695.63,25.37l-42.46,83.12h17.42l6.32-12.45h58.33l6.28,12.45h17.48l-42.46-83.12h-20.93.02ZM684.84,80.51l21.22-41.43,21.21,41.43h-42.44.01ZM496.29,96.05h17.08l.33-.92c4.19-11.62,4.27-23.54.2-35.45-6.19-18.3-22.35-32.22-41.18-35.49-3.2-.57-6.47-.86-9.74-.86-14.41,0-27.93,5.59-38.09,15.75-10.16,10.16-15.75,23.71-15.75,38.13,0,29.13,23.72,53.26,52.89,53.81l2.38.05h52.46v-15.55h-54.08c-15.49,0-29.57-9.18-35.03-22.85-5.12-12.65-3.86-26.09,3.47-36.9,7.14-10.58,19.02-16.9,31.76-16.9,2.76,0,5.61.3,8.47.9,14.02,3.01,25.31,14.09,28.76,28.21,2.2,9.01,1.21,18.01-2.88,26.04l-1.02,2.02h-.03ZM619.65,65.6c0,16.11-13.11,29.22-29.22,29.22s-29.22-13.11-29.22-29.22V25.37h-15.54v40.23c0,24.72,20.08,44.81,44.76,44.81s44.76-20.11,44.76-44.81V25.37h-15.54v40.23ZM1583.98,25.37l-39.02,71.06-39.43-71.06h-24.05v83.12h15.54V42.04l36.82,66.45h22.23l36.31-66.1v66.1h15.54V25.37h-23.96.03ZM1431.92,65.6c0,16.11-13.11,29.22-29.22,29.22s-29.22-13.11-29.22-29.22V25.37h-15.6v40.23c0,24.72,20.11,44.81,44.81,44.81s44.76-20.11,44.76-44.81V25.37h-15.54v40.23h.02ZM1184.21,89.61l-65.29-64.24h-17.92v83.12h15.54v-63.81l62.95,63.81h20.24V25.37h-15.54v64.24h.02ZM1308.6,65.6c0,16.11-13.11,29.22-29.22,29.22s-29.22-13.11-29.22-29.22V25.37h-15.54v40.23c0,24.72,20.08,44.81,44.76,44.81s44.81-20.11,44.81-44.81V25.37h-15.6v40.23h.02ZM1044.2,108.49h15.54V25.37h-15.54v83.12Z"/>
      </g>
    </g>
  </g>
</svg>
