<?xml version="1.0" encoding="UTF-8"?>
<svg id="Layer_2" data-name="Layer 2" xmlns="http://www.w3.org/2000/svg" xmlns:xlink="http://www.w3.org/1999/xlink" viewBox="0 0 1607.91 382.63">
  <defs>
    <style>
      .cls-1 {
        fill: url(#linear-gradient-7);
      }

      .cls-2 {
        fill: url(#linear-gradient-5);
      }

      .cls-3 {
        fill: url(#linear-gradient-6);
      }

      .cls-4 {
        fill: url(#linear-gradient-4);
      }

      .cls-5 {
        fill: url(#linear-gradient-3);
      }

      .cls-6 {
        fill: url(#linear-gradient-2);
      }

      .cls-7 {
        fill: url(#linear-gradient);
      }
    </style>
    <linearGradient id="linear-gradient" x1="132.13" y1="102.54" x2="131.57" y2="102.54" gradientUnits="userSpaceOnUse">
      <stop offset="0" stop-color="#95c83d"/>
      <stop offset="0" stop-color="#94c83f"/>
      <stop offset=".1" stop-color="#88c86a"/>
      <stop offset=".19" stop-color="#7fc88c"/>
      <stop offset=".28" stop-color="#78c8a4"/>
      <stop offset=".36" stop-color="#74c8b2"/>
      <stop offset=".42" stop-color="#73c8b8"/>
      <stop offset=".99" stop-color="#146d7a"/>
    </linearGradient>
    <linearGradient id="linear-gradient-2" x1="357.02" y1="181.75" x2="35.25" y2="181.75" xlink:href="#linear-gradient"/>
    <linearGradient id="linear-gradient-3" x1="-659.18" y1="11764.4" x2="-635.18" y2="11688.04" gradientTransform="translate(-5649.06 13207.08) rotate(6.91) scale(1.17 -1.15) skewX(20.17)" gradientUnits="userSpaceOnUse">
      <stop offset="0" stop-color="#73c8b8"/>
      <stop offset=".2" stop-color="#73c8b4"/>
      <stop offset=".36" stop-color="#76c8ab"/>
      <stop offset=".49" stop-color="#7ac89b"/>
      <stop offset=".62" stop-color="#81c884"/>
      <stop offset=".74" stop-color="#89c866"/>
      <stop offset=".86" stop-color="#93c842"/>
      <stop offset=".87" stop-color="#95c83d"/>
    </linearGradient>
    <linearGradient id="linear-gradient-4" x1="183.2" y1="30.31" x2="284.55" y2="131.67" gradientUnits="userSpaceOnUse">
      <stop offset="0" stop-color="#306177"/>
      <stop offset=".15" stop-color="#345f75"/>
      <stop offset=".31" stop-color="#415a71"/>
      <stop offset=".48" stop-color="#56536b"/>
      <stop offset=".65" stop-color="#744862"/>
      <stop offset=".83" stop-color="#9b3a57"/>
      <stop offset="1" stop-color="#c92a4a"/>
    </linearGradient>
    <linearGradient id="linear-gradient-5" x1="63.87" y1="300.83" x2="187.28" y2="87.08" gradientUnits="userSpaceOnUse">
      <stop offset=".18" stop-color="#306177"/>
      <stop offset=".29" stop-color="#51546d"/>
      <stop offset=".45" stop-color="#7c4560"/>
      <stop offset=".6" stop-color="#9d3956"/>
      <stop offset=".75" stop-color="#b5304f"/>
      <stop offset=".89" stop-color="#c42b4b"/>
      <stop offset="1" stop-color="#c92a4a"/>
    </linearGradient>
    <linearGradient id="linear-gradient-6" x1="255.03" y1="166.07" x2="255.03" y2="239.37" gradientUnits="userSpaceOnUse">
      <stop offset="0" stop-color="#73c8b8"/>
      <stop offset=".27" stop-color="#5ba3a0"/>
      <stop offset=".58" stop-color="#437f8a"/>
      <stop offset=".84" stop-color="#35697c"/>
      <stop offset="1" stop-color="#306177"/>
    </linearGradient>
    <linearGradient id="linear-gradient-7" x1="77.92" y1="113.28" x2="77.92" y2="354.53" gradientUnits="userSpaceOnUse">
      <stop offset="0" stop-color="#c92a4a"/>
      <stop offset=".06" stop-color="#ba2f4e"/>
      <stop offset=".29" stop-color="#89405c"/>
      <stop offset=".5" stop-color="#624e68"/>
      <stop offset=".7" stop-color="#465870"/>
      <stop offset=".87" stop-color="#355e75"/>
      <stop offset="1" stop-color="#306177"/>
    </linearGradient>
  </defs>
  <g id="Layer_1-2" data-name="Layer 1">
    <g>
      <g>
        <g>
          <path d="M595.54,254.13h-85.31v34.24h49.49c-9.04,22.65-31.15,38.72-56.99,38.72-33.84,0-61.38-27.53-61.38-61.38s27.53-61.37,61.38-61.37c22.3,0,41.72,12.05,52.45,29.89h35.49c-12.96-36.13-47.41-62.1-87.95-62.1-51.61,0-93.59,41.98-93.59,93.59s41.98,93.59,93.59,93.59,93.59-41.99,93.59-93.59c0-3.92-.32-7.77-.79-11.56v-.02Z"/>
          <path d="M1002.01,179.25h-124.2s0,172.94,0,172.94h31.6v-70.62h92.6c28.53,0,51.74-22.95,51.74-51.16s-23.21-51.16-51.74-51.16ZM1002.01,249.97h-92.6l.11-39.13h92.49c11.11,0,20.15,8.78,20.15,19.57s-9.04,19.56-20.15,19.56Z"/>
          <path d="M794.23,261.06c0,32.73-26.63,59.35-59.35,59.35s-59.35-26.63-59.35-59.35v-81.71h-31.58v81.71c0,50.19,40.79,91.02,90.93,91.02s91.02-40.83,91.02-91.02v-81.71h-31.67v81.71Z"/>
          <polygon points="1497.9 179.35 1456.63 179.35 1399.84 242.59 1343.05 179.35 1301.78 179.35 1383.67 270.62 1383.67 352.08 1416.01 352.08 1416.01 270.62 1497.9 179.35"/>
          <path d="M1228.92,179.25h-124.2s0,172.94,0,172.94h31.6v-70.62h92.6c28.53,0,51.74-22.95,51.74-51.16s-23.21-51.16-51.74-51.16ZM1228.92,249.97h-92.6l.11-39.13h92.49c11.11,0,20.15,8.78,20.15,19.57s-9.04,19.56-20.15,19.56Z"/>
        </g>
        <path d="M916.12,40.91h39.5v67.57h15.6V40.91h39.5v-15.54h-94.59v15.54h-.02ZM871.31,89.61l-65.28-64.24h-17.92v83.12h15.54v-63.81l62.95,63.81h20.24V25.37h-15.54v64.24ZM695.63,25.37l-42.46,83.12h17.42l6.32-12.45h58.33l6.28,12.45h17.48l-42.46-83.12h-20.93.02ZM684.84,80.51l21.22-41.43,21.21,41.43h-42.44.01ZM496.29,96.05h17.08l.33-.92c4.19-11.62,4.27-23.54.2-35.45-6.19-18.3-22.35-32.22-41.18-35.49-3.2-.57-6.47-.86-9.74-.86-14.41,0-27.93,5.59-38.09,15.75-10.16,10.16-15.75,23.71-15.75,38.13,0,29.13,23.72,53.26,52.89,53.81l2.38.05h52.46v-15.55h-54.08c-15.49,0-29.57-9.18-35.03-22.85-5.12-12.65-3.86-26.09,3.47-36.9,7.14-10.58,19.02-16.9,31.76-16.9,2.76,0,5.61.3,8.47.9,14.02,3.01,25.31,14.09,28.76,28.21,2.2,9.01,1.21,18.01-2.88,26.04l-1.02,2.02h-.03ZM619.65,65.6c0,16.11-13.11,29.22-29.22,29.22s-29.22-13.11-29.22-29.22V25.37h-15.54v40.23c0,24.72,20.08,44.81,44.76,44.81s44.76-20.11,44.76-44.81V25.37h-15.54v40.23ZM1583.98,25.37l-39.02,71.06-39.43-71.06h-24.05v83.12h15.54V42.04l36.82,66.45h22.23l36.31-66.1v66.1h15.54V25.37h-23.96.03ZM1431.92,65.6c0,16.11-13.11,29.22-29.22,29.22s-29.22-13.11-29.22-29.22V25.37h-15.6v40.23c0,24.72,20.11,44.81,44.81,44.81s44.76-20.11,44.76-44.81V25.37h-15.54v40.23h.02ZM1184.21,89.61l-65.29-64.24h-17.92v83.12h15.54v-63.81l62.95,63.81h20.24V25.37h-15.54v64.24h.02ZM1308.6,65.6c0,16.11-13.11,29.22-29.22,29.22s-29.22-13.11-29.22-29.22V25.37h-15.54v40.23c0,24.72,20.08,44.81,44.76,44.81s44.81-20.11,44.81-44.81V25.37h-15.6v40.23h.02ZM1044.2,108.5h15.54V25.37h-15.54v83.12Z"/>
      </g>
      <g>
        <g>
          <path class="cls-7" d="M131.57,103.25c.18-.48.37-.94.56-1.41-.19.47-.38.94-.56,1.41Z"/>
          <path class="cls-6" d="M348.58,195.12c-1.88-3.38-4.4-6.72-7.49-8.97l-.14-.1c-10.28-7.57-20.01,1.72-26.52,9.9-14.29,18.68-32.05,35.48-55.15,42.15-32.93,9.29-70.48,2.22-98.19-19.65-28.05-23.93-41.74-60.51-34.89-95.99,1.26-6.53,2.96-12.77,5.13-18.59-.08.22-.17.43-.25.65,1.23-5.34,5.14-15.41,9.22-23.56,6.07-12.13,13-21.08,21.66-29.38,16.76-16.07,38.96-26.73,61.4-33.03,12.29-3.45,25.11-5.01,37.87-4.6,4.13.13,8.28.52,12.4,1.12,0,0-.84-.38,0,0C245.2,1.73,215.71-2.61,184.23,1.48,106.74,10.39,44.48,77.58,36.3,153.66c-1.57,19.6-1.94,38.31,2.81,60.42,17.26,80.4,88.93,144.95,172.79,148.86,21.85,1.02,44.63,1.43,62.01-6.27,30.2-13.37,49.88-30.79,66.44-62.08,16.57-31.32,23.42-71,8.25-99.48ZM315.32,278.38c-6.03,1.52-12.17-2.21-13.72-8.33-1.55-6.13,2.09-12.33,8.11-13.85,6.03-1.52,12.17,2.21,13.72,8.33,1.55,6.13-2.09,12.33-8.11,13.85Z"/>
        </g>
        <path class="cls-5" d="M129.23,367.12c1.18-8.66,11.79-10.26,19.46-12.9,20.69-7.11,45.11-25.92,55.99-36.7,5.44-5.35,11-12.07,15.55-17.87,3.72-4.58,5.42-6.41,10.39-3.71,5.6,3.26,11.53,7.62,17.01,11.38,9.34,6.38,16.77,14.47,28.72,21.24,8.35,4.73,31.41,7.72,31.41,7.72-17.59,15.24-36.02,25-45.31,29.17-15.16,6.81-37.37,15.72-76.96,17.06-18.48.63-57.33-.88-56.26-15.28v-.12Z"/>
        <path class="cls-4" d="M140.32,80.96c-4.08,8.15-7.99,18.22-9.22,23.56,7.12-19.63,23.02-38.27,47.12-41.97,22.82-3.51,44.52,6.55,56.46,25.69,7.86,12.6,10.22,27.31,28.69,29.17,16.64,1.68,37.54-3.76,51.85-16.56,10.33-9.24,23.23-26.19,20.79-39.83-1.94-9.87-17.08-19.77-25.84-25.79-11.81-8.12-23.53-14.34-36.52-20.17-4.12-.6-8.27-.98-12.4-1.12-12.76-.41-25.58,1.15-37.87,4.6-22.44,6.3-44.64,16.96-61.4,33.03-8.66,8.3-15.59,17.25-21.66,29.38Z"/>
        <path class="cls-2" d="M168.39,344.88c-56.48-25.95-93.92-65.35-110.37-124.88-18.82-68.1-3.2-146.12,42.71-182.89-22.49,18.01-41.01,39.77-53.55,71.2-9.68,24.26-11.06,46.45-11.71,54.85-6.43,84.08,48.93,161.09,120.37,188.22,4.16-1.85,8.38-4.07,12.55-6.5Z"/>
        <path class="cls-3" d="M200.35,175.85l-.03.14c-1.46,10.41,10.66,17.3,17.6,23.39,10.11,8.08,18.55,16.57,26.3,26.78,3.28,3.93,6.3,9.2,10.02,13.21,1.69-.39,3.37-.8,5.04-1.27,20.71-5.98,37.12-20.1,50.59-36.41-7.56-7.37-23.49-17.71-33.96-22.4-8.44-3.78-17.02-7.1-26.2-9.23-16.77-3.89-44.49-8.65-49.35,5.8Z"/>
        <path class="cls-1" d="M37.62,206.81v-.03c-2.15-2.06-4.23-4.38-6.31-7.22-9.6-13.19-13.44-30.74-13.6-46.98-.11-6.29.43-13.36,1.05-19.59.16-4.05,2.28-16.5-.8-19.28-.53-.48-1.33-.55-1.99-.27-1.44.61-2.51,2.33-4,4.39-1.96,3.08-3.91,6.62-4.99,10.15-18.53,60.66-.58,138.67,59.44,188.16,20.78,17.13,51.74,32.84,81.32,38.38h.02c2.63-.87,5.35-1.93,8.09-3.15-58.82-22.34-106.73-78.49-118.23-144.56Z"/>
      </g>
    </g>
  </g>
</svg>
