<svg width="292" height="313" viewBox="0 0 292 313" fill="none" xmlns="http://www.w3.org/2000/svg">
<g clip-path="url(#clip0_1_196)">
<path d="M107.61 84.4608C107.758 84.0682 107.913 83.6919 108.069 83.3074C107.913 83.6919 107.758 84.0763 107.61 84.4608Z" fill="url(#paint0_linear_1_196)"/>
<path d="M285.101 159.613C283.564 156.848 281.503 154.115 278.975 152.275L278.861 152.193C270.453 146.001 262.495 153.6 257.17 160.292C245.482 175.572 230.957 189.315 212.063 194.771C185.13 202.371 154.418 196.587 131.754 178.697C108.813 159.122 97.6156 129.199 103.218 100.175C104.249 94.8334 105.639 89.7289 107.414 84.968C107.349 85.148 107.275 85.3198 107.209 85.4997C108.215 81.1315 111.413 72.894 114.75 66.2271C119.715 56.3045 125.383 48.9832 132.466 42.1936C146.174 29.048 164.331 20.3279 182.685 15.1743C192.737 12.3521 203.222 11.076 213.658 11.4114C217.036 11.5178 220.43 11.8368 223.8 12.3276C200.547 1.41518 176.428 -2.13504 150.68 1.21068C87.3019 8.49926 36.3799 63.4622 29.6895 125.697C28.4055 141.731 28.1028 157.036 31.9878 175.122C46.1047 240.891 104.723 293.695 173.312 296.893C191.183 297.728 209.814 298.063 224.029 291.764C248.73 280.827 264.826 266.577 278.37 240.981C291.922 215.361 297.525 182.902 285.118 159.604L285.101 159.613ZM257.898 227.721C252.966 228.965 247.944 225.913 246.677 220.907C245.409 215.893 248.386 210.821 253.31 209.577C258.242 208.334 263.263 211.385 264.531 216.392C265.799 221.406 262.822 226.478 257.898 227.721Z" fill="url(#paint1_linear_1_196)"/>
<path d="M105.696 300.313C106.661 293.228 115.339 291.92 121.613 289.76C138.535 283.944 158.508 268.557 167.406 259.739C171.856 255.362 176.403 249.865 180.125 245.121C183.167 241.374 184.558 239.877 188.623 242.086C193.203 244.752 198.053 248.319 202.535 251.395C210.174 256.614 216.251 263.232 226.025 268.77C232.854 272.639 251.715 275.085 251.715 275.085C237.328 287.551 222.254 295.535 214.656 298.946C202.257 304.517 184.091 311.806 151.711 312.902C136.596 313.417 104.821 312.182 105.696 300.402V300.304V300.313Z" fill="url(#paint2_linear_1_196)"/>
<path d="M114.767 66.2271C111.43 72.894 108.232 81.1315 107.226 85.4997C113.049 69.4419 126.054 54.194 145.765 51.1673C164.429 48.2961 182.178 56.5254 191.943 72.1823C198.372 82.4894 200.302 94.5225 215.409 96.044C229.018 97.4183 246.112 92.9683 257.816 82.4976C266.265 74.939 276.816 61.0736 274.82 49.9157C273.234 41.8419 260.851 33.7434 253.686 28.8189C244.027 22.1766 234.441 17.0885 223.816 12.3194C220.447 11.8286 217.053 11.5178 213.675 11.4032C203.238 11.0679 192.753 12.344 182.701 15.1661C164.347 20.3197 146.19 29.0398 132.482 42.1854C125.399 48.975 119.731 56.2963 114.767 66.2189V66.2271Z" fill="url(#paint3_linear_1_196)"/>
<path d="M137.725 282.12C91.5304 260.892 60.9085 228.662 47.4542 179.965C32.0614 124.258 44.8369 60.4355 82.3864 30.3568C63.992 45.0894 48.8446 62.8896 38.5882 88.6C30.671 108.445 29.5423 126.597 29.0107 133.469C23.7516 202.248 69.0302 265.244 127.46 287.437C130.863 285.924 134.314 284.107 137.725 282.12Z" fill="url(#paint4_linear_1_196)"/>
<path d="M163.865 143.849L163.84 143.964C162.646 152.479 172.559 158.116 178.235 163.097C186.504 169.707 193.407 176.652 199.746 185.004C202.429 188.219 204.899 192.53 207.941 195.81C209.323 195.491 210.698 195.156 212.063 194.771C229.002 189.879 242.424 178.329 253.441 164.987C247.257 158.958 234.228 150.5 225.665 146.663C218.762 143.571 211.744 140.855 204.236 139.113C190.52 135.931 167.848 132.037 163.873 143.857L163.865 143.849Z" fill="url(#paint5_linear_1_196)"/>
<path d="M30.7692 169.175V169.151C29.0107 167.466 27.3095 165.568 25.6082 163.245C17.7565 152.455 14.6158 138.099 14.4849 124.814C14.3949 119.669 14.8366 113.885 15.3437 108.789C15.4746 105.476 17.2085 95.2915 14.6894 93.0174C14.2559 92.6247 13.6016 92.5675 13.0618 92.7965C11.884 93.2955 11.0089 94.7025 9.79019 96.3876C8.18712 98.9071 6.59223 101.803 5.7089 104.691C-9.44666 154.312 5.23452 218.126 54.3245 258.61C71.3203 272.622 96.6423 285.474 120.836 290.005H120.852C123.003 289.294 125.228 288.427 127.469 287.429C79.3602 269.154 40.1749 223.222 30.7692 169.175Z" fill="url(#paint6_linear_1_196)"/>
</g>
<defs>
<linearGradient id="paint0_linear_1_196" x1="108.069" y1="83.88" x2="107.61" y2="83.88" gradientUnits="userSpaceOnUse">
<stop stop-color="#94C83F"/>
<stop offset="0.1" stop-color="#88C86A"/>
<stop offset="0.19" stop-color="#7FC88C"/>
<stop offset="0.28" stop-color="#78C8A4"/>
<stop offset="0.36" stop-color="#74C8B2"/>
<stop offset="0.42" stop-color="#73C8B8"/>
<stop offset="0.99" stop-color="#146D7A"/>
</linearGradient>
<linearGradient id="paint1_linear_1_196" x1="292.004" y1="148.676" x2="28.8308" y2="148.676" gradientUnits="userSpaceOnUse">
<stop stop-color="#94C83F"/>
<stop offset="0.1" stop-color="#88C86A"/>
<stop offset="0.19" stop-color="#7FC88C"/>
<stop offset="0.28" stop-color="#78C8A4"/>
<stop offset="0.36" stop-color="#74C8B2"/>
<stop offset="0.42" stop-color="#73C8B8"/>
<stop offset="0.99" stop-color="#146D7A"/>
</linearGradient>
<linearGradient id="paint2_linear_1_196" x1="-3915.27" y1="-258.902" x2="-3901.84" y2="-184.695" gradientUnits="userSpaceOnUse">
<stop stop-color="#73C8B8"/>
<stop offset="0.2" stop-color="#73C8B4"/>
<stop offset="0.36" stop-color="#76C8AB"/>
<stop offset="0.49" stop-color="#7AC89B"/>
<stop offset="0.62" stop-color="#81C884"/>
<stop offset="0.74" stop-color="#89C866"/>
<stop offset="0.86" stop-color="#93C842"/>
<stop offset="0.87" stop-color="#95C83D"/>
</linearGradient>
<linearGradient id="paint3_linear_1_196" x1="149.838" y1="24.7943" x2="232.745" y2="107.696" gradientUnits="userSpaceOnUse">
<stop stop-color="#306177"/>
<stop offset="0.15" stop-color="#345F75"/>
<stop offset="0.31" stop-color="#415A71"/>
<stop offset="0.48" stop-color="#56536B"/>
<stop offset="0.65" stop-color="#744862"/>
<stop offset="0.83" stop-color="#9B3A57"/>
<stop offset="1" stop-color="#C92A4A"/>
</linearGradient>
<linearGradient id="paint4_linear_1_196" x1="52.2388" y1="246.086" x2="153.199" y2="71.2473" gradientUnits="userSpaceOnUse">
<stop offset="0.18" stop-color="#306177"/>
<stop offset="0.29" stop-color="#51546D"/>
<stop offset="0.45" stop-color="#7C4560"/>
<stop offset="0.6" stop-color="#9D3956"/>
<stop offset="0.75" stop-color="#B5304F"/>
<stop offset="0.89" stop-color="#C42B4B"/>
<stop offset="1" stop-color="#C92A4A"/>
</linearGradient>
<linearGradient id="paint5_linear_1_196" x1="208.587" y1="135.849" x2="208.587" y2="195.81" gradientUnits="userSpaceOnUse">
<stop stop-color="#73C8B8"/>
<stop offset="0.27" stop-color="#5BA3A0"/>
<stop offset="0.58" stop-color="#437F8A"/>
<stop offset="0.84" stop-color="#35697C"/>
<stop offset="1" stop-color="#306177"/>
</linearGradient>
<linearGradient id="paint6_linear_1_196" x1="63.7303" y1="92.6656" x2="63.7303" y2="290.014" gradientUnits="userSpaceOnUse">
<stop stop-color="#C92A4A"/>
<stop offset="0.06" stop-color="#BA2F4E"/>
<stop offset="0.29" stop-color="#89405C"/>
<stop offset="0.5" stop-color="#624E68"/>
<stop offset="0.7" stop-color="#465870"/>
<stop offset="0.87" stop-color="#355E75"/>
<stop offset="1" stop-color="#306177"/>
</linearGradient>
<clipPath id="clip0_1_196">
<rect width="292" height="313" fill="white"/>
</clipPath>
</defs>
</svg>
